<?xml version="1.0" encoding="UTF-8" standalone="no"?>
<!DOCTYPE svg PUBLIC "-//W3C//DTD SVG 1.1//EN"
 "http://www.w3.org/Graphics/SVG/1.1/DTD/svg11.dtd">
<!-- Generated by graphviz version 2.46.0 (20210118.1747)
 -->
<!-- Title: Tree Pages: 1 -->
<svg width="522pt" height="433pt"
 viewBox="0.00 0.00 522.00 433.00" xmlns="http://www.w3.org/2000/svg" xmlns:xlink="http://www.w3.org/1999/xlink">
<g id="graph0" class="graph" transform="scale(1 1) rotate(0) translate(4 429)">
<title>Tree</title>
<polygon fill="white" stroke="transparent" points="-4,4 -4,-429 518,-429 518,4 -4,4"/>
<!-- 0 -->
<g id="node1" class="node">
<title>0</title>
<path fill="#c1e0f7" stroke="black" d="M439,-425C439,-425 244,-425 244,-425 238,-425 232,-419 232,-413 232,-413 232,-354 232,-354 232,-348 238,-342 244,-342 244,-342 439,-342 439,-342 445,-342 451,-348 451,-354 451,-354 451,-413 451,-413 451,-419 445,-425 439,-425"/>
<text text-anchor="start" x="253.5" y="-409.8" font-family="Helvetica,sans-Serif" font-size="14.00">Target_sec_completo ≤ 0.5</text>
<text text-anchor="start" x="304" y="-394.8" font-family="Helvetica,sans-Serif" font-size="14.00">gini = 0.691</text>
<text text-anchor="start" x="290" y="-379.8" font-family="Helvetica,sans-Serif" font-size="14.00">samples = 5821</text>
<text text-anchor="start" x="240" y="-364.8" font-family="Helvetica,sans-Serif" font-size="14.00">value = [879, 1053, 2661, 1228]</text>
<text text-anchor="start" x="312.5" y="-349.8" font-family="Helvetica,sans-Serif" font-size="14.00">class = 2</text>
</g>
<!-- 1 -->
<g id="node2" class="node">
<title>1</title>
<path fill="#fceffd" stroke="black" d="M330.5,-306C330.5,-306 160.5,-306 160.5,-306 154.5,-306 148.5,-300 148.5,-294 148.5,-294 148.5,-235 148.5,-235 148.5,-229 154.5,-223 160.5,-223 160.5,-223 330.5,-223 330.5,-223 336.5,-223 342.5,-229 342.5,-235 342.5,-235 342.5,-294 342.5,-294 342.5,-300 336.5,-306 330.5,-306"/>
<text text-anchor="start" x="177" y="-290.8" font-family="Helvetica,sans-Serif" font-size="14.00">Target_superior ≤ 0.5</text>
<text text-anchor="start" x="208" y="-275.8" font-family="Helvetica,sans-Serif" font-size="14.00">gini = 0.661</text>
<text text-anchor="start" x="194" y="-260.8" font-family="Helvetica,sans-Serif" font-size="14.00">samples = 3160</text>
<text text-anchor="start" x="156.5" y="-245.8" font-family="Helvetica,sans-Serif" font-size="14.00">value = [879, 1053, 0, 1228]</text>
<text text-anchor="start" x="216.5" y="-230.8" font-family="Helvetica,sans-Serif" font-size="14.00">class = 4</text>
</g>
<!-- 0&#45;&gt;1 -->
<g id="edge1" class="edge">
<title>0&#45;&gt;1</title>
<path fill="none" stroke="black" d="M308.19,-341.91C300.75,-332.83 292.78,-323.12 285.11,-313.77"/>
<polygon fill="black" stroke="black" points="287.8,-311.53 278.75,-306.02 282.39,-315.97 287.8,-311.53"/>
<text text-anchor="middle" x="276.29" y="-327.2" font-family="Helvetica,sans-Serif" font-size="14.00">True</text>
</g>
<!-- 6 -->
<g id="node7" class="node">
<title>6</title>
<path fill="#399de5" stroke="black" d="M502,-298.5C502,-298.5 373,-298.5 373,-298.5 367,-298.5 361,-292.5 361,-286.5 361,-286.5 361,-242.5 361,-242.5 361,-236.5 367,-230.5 373,-230.5 373,-230.5 502,-230.5 502,-230.5 508,-230.5 514,-236.5 514,-242.5 514,-242.5 514,-286.5 514,-286.5 514,-292.5 508,-298.5 502,-298.5"/>
<text text-anchor="start" x="408.5" y="-283.3" font-family="Helvetica,sans-Serif" font-size="14.00">gini = 0.0</text>
<text text-anchor="start" x="386" y="-268.3" font-family="Helvetica,sans-Serif" font-size="14.00">samples = 2661</text>
<text text-anchor="start" x="369" y="-253.3" font-family="Helvetica,sans-Serif" font-size="14.00">value = [0, 0, 2661, 0]</text>
<text text-anchor="start" x="408.5" y="-238.3" font-family="Helvetica,sans-Serif" font-size="14.00">class = 2</text>
</g>
<!-- 0&#45;&gt;6 -->
<g id="edge6" class="edge">
<title>0&#45;&gt;6</title>
<path fill="none" stroke="black" d="M374.81,-341.91C384.22,-330.43 394.47,-317.94 403.91,-306.44"/>
<polygon fill="black" stroke="black" points="406.65,-308.62 410.29,-298.67 401.24,-304.18 406.65,-308.62"/>
<text text-anchor="middle" x="412.74" y="-319.85" font-family="Helvetica,sans-Serif" font-size="14.00">False</text>
</g>
<!-- 2 -->
<g id="node3" class="node">
<title>2</title>
<path fill="#e1fbde" stroke="black" d="M228.5,-187C228.5,-187 82.5,-187 82.5,-187 76.5,-187 70.5,-181 70.5,-175 70.5,-175 70.5,-116 70.5,-116 70.5,-110 76.5,-104 82.5,-104 82.5,-104 228.5,-104 228.5,-104 234.5,-104 240.5,-110 240.5,-116 240.5,-116 240.5,-175 240.5,-175 240.5,-181 234.5,-187 228.5,-187"/>
<text text-anchor="start" x="119.5" y="-171.8" font-family="Helvetica,sans-Serif" font-size="14.00">target ≤ 1.5</text>
<text text-anchor="start" x="118" y="-156.8" font-family="Helvetica,sans-Serif" font-size="14.00">gini = 0.496</text>
<text text-anchor="start" x="104" y="-141.8" font-family="Helvetica,sans-Serif" font-size="14.00">samples = 1932</text>
<text text-anchor="start" x="78.5" y="-126.8" font-family="Helvetica,sans-Serif" font-size="14.00">value = [879, 1053, 0, 0]</text>
<text text-anchor="start" x="126.5" y="-111.8" font-family="Helvetica,sans-Serif" font-size="14.00">class = 1</text>
</g>
<!-- 1&#45;&gt;2 -->
<g id="edge2" class="edge">
<title>1&#45;&gt;2</title>
<path fill="none" stroke="black" d="M214.27,-222.91C207.36,-213.92 199.97,-204.32 192.85,-195.05"/>
<polygon fill="black" stroke="black" points="195.54,-192.81 186.67,-187.02 189.99,-197.08 195.54,-192.81"/>
</g>
<!-- 5 -->
<g id="node6" class="node">
<title>5</title>
<path fill="#d739e5" stroke="black" d="M400,-179.5C400,-179.5 271,-179.5 271,-179.5 265,-179.5 259,-173.5 259,-167.5 259,-167.5 259,-123.5 259,-123.5 259,-117.5 265,-111.5 271,-111.5 271,-111.5 400,-111.5 400,-111.5 406,-111.5 412,-117.5 412,-123.5 412,-123.5 412,-167.5 412,-167.5 412,-173.5 406,-179.5 400,-179.5"/>
<text text-anchor="start" x="306.5" y="-164.3" font-family="Helvetica,sans-Serif" font-size="14.00">gini = 0.0</text>
<text text-anchor="start" x="284" y="-149.3" font-family="Helvetica,sans-Serif" font-size="14.00">samples = 1228</text>
<text text-anchor="start" x="267" y="-134.3" font-family="Helvetica,sans-Serif" font-size="14.00">value = [0, 0, 0, 1228]</text>
<text text-anchor="start" x="306.5" y="-119.3" font-family="Helvetica,sans-Serif" font-size="14.00">class = 4</text>
</g>
<!-- 1&#45;&gt;5 -->
<g id="edge5" class="edge">
<title>1&#45;&gt;5</title>
<path fill="none" stroke="black" d="M276.73,-222.91C285.47,-211.54 294.98,-199.18 303.75,-187.77"/>
<polygon fill="black" stroke="black" points="306.66,-189.73 309.99,-179.67 301.12,-185.46 306.66,-189.73"/>
</g>
<!-- 3 -->
<g id="node4" class="node">
<title>3</title>
<path fill="#e58139" stroke="black" d="M133,-68C133,-68 12,-68 12,-68 6,-68 0,-62 0,-56 0,-56 0,-12 0,-12 0,-6 6,0 12,0 12,0 133,0 133,0 139,0 145,-6 145,-12 145,-12 145,-56 145,-56 145,-62 139,-68 133,-68"/>
<text text-anchor="start" x="43.5" y="-52.8" font-family="Helvetica,sans-Serif" font-size="14.00">gini = 0.0</text>
<text text-anchor="start" x="25" y="-37.8" font-family="Helvetica,sans-Serif" font-size="14.00">samples = 879</text>
<text text-anchor="start" x="8" y="-22.8" font-family="Helvetica,sans-Serif" font-size="14.00">value = [879, 0, 0, 0]</text>
<text text-anchor="start" x="43.5" y="-7.8" font-family="Helvetica,sans-Serif" font-size="14.00">class = 3</text>
</g>
<!-- 2&#45;&gt;3 -->
<g id="edge3" class="edge">
<title>2&#45;&gt;3</title>
<path fill="none" stroke="black" d="M124.59,-103.73C117.82,-94.79 110.64,-85.32 103.85,-76.36"/>
<polygon fill="black" stroke="black" points="106.57,-74.15 97.74,-68.3 100.99,-78.38 106.57,-74.15"/>
</g>
<!-- 4 -->
<g id="node5" class="node">
<title>4</title>
<path fill="#47e539" stroke="black" d="M304,-68C304,-68 175,-68 175,-68 169,-68 163,-62 163,-56 163,-56 163,-12 163,-12 163,-6 169,0 175,0 175,0 304,0 304,0 310,0 316,-6 316,-12 316,-12 316,-56 316,-56 316,-62 310,-68 304,-68"/>
<text text-anchor="start" x="210.5" y="-52.8" font-family="Helvetica,sans-Serif" font-size="14.00">gini = 0.0</text>
<text text-anchor="start" x="188" y="-37.8" font-family="Helvetica,sans-Serif" font-size="14.00">samples = 1053</text>
<text text-anchor="start" x="171" y="-22.8" font-family="Helvetica,sans-Serif" font-size="14.00">value = [0, 1053, 0, 0]</text>
<text text-anchor="start" x="210.5" y="-7.8" font-family="Helvetica,sans-Serif" font-size="14.00">class = 1</text>
</g>
<!-- 2&#45;&gt;4 -->
<g id="edge4" class="edge">
<title>2&#45;&gt;4</title>
<path fill="none" stroke="black" d="M186.78,-103.73C193.64,-94.79 200.9,-85.32 207.78,-76.36"/>
<polygon fill="black" stroke="black" points="210.65,-78.36 213.96,-68.3 205.09,-74.1 210.65,-78.36"/>
</g>
</g>
</svg>
